<svg xmlns="http://www.w3.org/2000/svg" xmlns:xlink="http://www.w3.org/1999/xlink" width="1920" zoomAndPan="magnify" viewBox="0 0 1440 809.999993" height="1080" preserveAspectRatio="xMidYMid meet" version="1.0"><defs><clipPath id="98c5bcab32"><path d="M 924 5.25 L 1397 5.25 L 1397 362 L 924 362 Z M 924 5.25 " clip-rule="nonzero"/></clipPath></defs><g clip-path="url(#98c5bcab32)"><path fill="#040134" d="M 1396.53125 5.25 L 1292.363281 5.25 C 1272.855469 5.25 1253.574219 15.9375 1242.1875 33.105469 L 1160.394531 189.550781 C 1144.238281 220.46875 1119.035156 246.613281 1088.40625 263.78125 C 1012.761719 306.105469 924.453125 329.324219 924.453125 329.324219 L 1081.296875 340.867188 L 1070.570312 361.390625 L 1206.425781 361.390625 L 1210.832031 353.101562 L 1264.003906 353.101562 Z M 1396.53125 5.25 " fill-opacity="1" fill-rule="nonzero"/></g><path fill="#008afa" d="M 787.417969 361.390625 L 651.5625 361.390625 L 690.289062 304.527344 C 701.96875 287.359375 721.414062 276.671875 740.925781 276.671875 L 845.09375 276.671875 Z M 787.417969 361.390625 " fill-opacity="1" fill-rule="nonzero"/><path fill="#9eceff" d="M 1435.160156 408.191406 C 1434.402344 410.691406 1433.1875 413.125 1431.574219 415.390625 C 1413.410156 440.945312 1374.09375 462.257812 1327.636719 482.15625 C 1308.71875 490.3125 1288.777344 495.902344 1268.347656 498.796875 C 1152.597656 515.042969 1037.109375 532.605469 921.164062 547.503906 C 781.460938 565.359375 640.015625 568.847656 499.160156 574.46875 C 455.828125 576.179688 412.367188 578.089844 368.902344 579.140625 C 335.109375 579.929688 301.355469 580.257812 267.660156 579.566406 C 254.796875 579.304688 241.964844 578.878906 229.101562 578.316406 C 195.34375 575.359375 163.363281 570.589844 133.949219 563.222656 C 119.339844 559.605469 105.386719 555.328125 92.160156 550.296875 C 85.878906 547.960938 79.757812 545.429688 73.800781 542.734375 C 50.804688 530.171875 28.792969 511.425781 7.4375 488.632812 C 2.601562 483.402344 0.890625 476.332031 2.4375 469.789062 C 3.097656 466.796875 4.445312 463.902344 6.519531 461.402344 C 23.625 440.320312 47.019531 423.21875 72.847656 407.632812 C 73.175781 407.433594 73.507812 407.238281 73.835938 407.039062 C 102.820312 380.792969 132.664062 358.332031 163.429688 340.046875 C 178.792969 330.9375 194.421875 322.8125 210.246094 315.808594 C 236.867188 304.035156 265.917969 298.9375 294.96875 299.957031 L 464.941406 306.039062 L 488.46875 306.863281 L 523.148438 308.113281 L 581.910156 310.21875 L 1268.214844 334.75 C 1284.4375 335.34375 1300.558594 337.613281 1316.316406 341.558594 C 1357.9375 352.082031 1395.21875 363.460938 1422.03125 376.980469 C 1433.777344 382.933594 1438.945312 396.382812 1435.160156 408.191406 Z M 1435.160156 408.191406 " fill-opacity="1" fill-rule="nonzero"/><path fill="#040134" d="M 296.320312 350.867188 C 293.195312 368.59375 282.46875 402.402344 246.011719 407.632812 L 72.847656 407.632812 C 73.175781 407.433594 73.507812 407.238281 73.835938 407.039062 C 102.820312 380.792969 132.664062 358.332031 163.429688 340.046875 L 287.238281 340.046875 C 292.964844 340.046875 297.339844 345.210938 296.320312 350.867188 Z M 296.320312 350.867188 " fill-opacity="1" fill-rule="nonzero"/><path fill="#040134" d="M 507.914062 434.894531 L 489.71875 434.894531 C 483.464844 434.894531 478.433594 429.832031 478.433594 423.613281 L 478.433594 391.648438 C 478.433594 385.398438 483.5 380.367188 489.71875 380.367188 L 507.914062 380.367188 C 514.164062 380.367188 519.199219 385.433594 519.199219 391.648438 L 519.199219 423.613281 C 519.199219 429.832031 514.132812 434.894531 507.914062 434.894531 Z M 507.914062 434.894531 " fill-opacity="1" fill-rule="nonzero"/><path fill="#040134" d="M 565.625 434.894531 L 547.429688 434.894531 C 541.175781 434.894531 536.144531 429.832031 536.144531 423.613281 L 536.144531 391.648438 C 536.144531 385.398438 541.210938 380.367188 547.429688 380.367188 L 565.625 380.367188 C 571.875 380.367188 576.910156 385.433594 576.910156 391.648438 L 576.910156 423.613281 C 576.941406 429.832031 571.875 434.894531 565.625 434.894531 Z M 565.625 434.894531 " fill-opacity="1" fill-rule="nonzero"/><path fill="#040134" d="M 623.367188 434.894531 L 605.171875 434.894531 C 598.921875 434.894531 593.886719 429.832031 593.886719 423.613281 L 593.886719 391.648438 C 593.886719 385.398438 598.953125 380.367188 605.171875 380.367188 L 623.367188 380.367188 C 629.617188 380.367188 634.652344 385.433594 634.652344 391.648438 L 634.652344 423.613281 C 634.652344 429.832031 629.585938 434.894531 623.367188 434.894531 Z M 623.367188 434.894531 " fill-opacity="1" fill-rule="nonzero"/><path fill="#040134" d="M 681.078125 434.894531 L 662.882812 434.894531 C 656.628906 434.894531 651.597656 429.832031 651.597656 423.613281 L 651.597656 391.648438 C 651.597656 385.398438 656.664062 380.367188 662.882812 380.367188 L 681.078125 380.367188 C 687.328125 380.367188 692.363281 385.433594 692.363281 391.648438 L 692.363281 423.613281 C 692.363281 429.832031 687.328125 434.894531 681.078125 434.894531 Z M 681.078125 434.894531 " fill-opacity="1" fill-rule="nonzero"/><path fill="#040134" d="M 738.785156 434.894531 L 720.59375 434.894531 C 714.339844 434.894531 709.308594 429.832031 709.308594 423.613281 L 709.308594 391.648438 C 709.308594 385.398438 714.375 380.367188 720.59375 380.367188 L 738.785156 380.367188 C 745.039062 380.367188 750.074219 385.433594 750.074219 391.648438 L 750.074219 423.613281 C 750.105469 429.832031 745.039062 434.894531 738.785156 434.894531 Z M 738.785156 434.894531 " fill-opacity="1" fill-rule="nonzero"/><path fill="#040134" d="M 796.53125 434.894531 L 778.335938 434.894531 C 772.085938 434.894531 767.050781 429.832031 767.050781 423.613281 L 767.050781 391.648438 C 767.050781 385.398438 772.117188 380.367188 778.335938 380.367188 L 796.53125 380.367188 C 802.78125 380.367188 807.816406 385.433594 807.816406 391.648438 L 807.816406 423.613281 C 807.816406 429.832031 802.78125 434.894531 796.53125 434.894531 Z M 796.53125 434.894531 " fill-opacity="1" fill-rule="nonzero"/><path fill="#040134" d="M 854.242188 434.894531 L 836.046875 434.894531 C 829.792969 434.894531 824.761719 429.832031 824.761719 423.613281 L 824.761719 391.648438 C 824.761719 385.398438 829.828125 380.367188 836.046875 380.367188 L 854.242188 380.367188 C 860.492188 380.367188 865.527344 385.433594 865.527344 391.648438 L 865.527344 423.613281 C 865.558594 429.832031 860.492188 434.894531 854.242188 434.894531 Z M 854.242188 434.894531 " fill-opacity="1" fill-rule="nonzero"/><path fill="#040134" d="M 911.984375 434.894531 L 893.789062 434.894531 C 887.539062 434.894531 882.503906 429.832031 882.503906 423.613281 L 882.503906 391.648438 C 882.503906 385.398438 887.570312 380.367188 893.789062 380.367188 L 911.984375 380.367188 C 918.234375 380.367188 923.269531 385.433594 923.269531 391.648438 L 923.269531 423.613281 C 923.269531 429.832031 918.203125 434.894531 911.984375 434.894531 Z M 911.984375 434.894531 " fill-opacity="1" fill-rule="nonzero"/><path fill="#040134" d="M 969.695312 434.894531 L 951.5 434.894531 C 945.246094 434.894531 940.214844 429.832031 940.214844 423.613281 L 940.214844 391.648438 C 940.214844 385.398438 945.28125 380.367188 951.5 380.367188 L 969.695312 380.367188 C 975.945312 380.367188 980.980469 385.433594 980.980469 391.648438 L 980.980469 423.613281 C 981.011719 429.832031 975.945312 434.894531 969.695312 434.894531 Z M 969.695312 434.894531 " fill-opacity="1" fill-rule="nonzero"/><path fill="#040134" d="M 1027.4375 434.894531 L 1009.242188 434.894531 C 1002.992188 434.894531 997.957031 429.832031 997.957031 423.613281 L 997.957031 391.648438 C 997.957031 385.398438 1003.023438 380.367188 1009.242188 380.367188 L 1027.4375 380.367188 C 1033.6875 380.367188 1038.722656 385.433594 1038.722656 391.648438 L 1038.722656 423.613281 C 1038.722656 429.832031 1033.65625 434.894531 1027.4375 434.894531 Z M 1027.4375 434.894531 " fill-opacity="1" fill-rule="nonzero"/><path fill="#ffffff" d="M 405.523438 487.382812 L 369.363281 487.382812 C 353.339844 487.382812 340.277344 474.328125 340.277344 458.3125 L 340.277344 377.734375 C 340.277344 361.71875 353.339844 348.664062 369.363281 348.664062 L 405.523438 348.664062 C 421.542969 348.664062 434.605469 361.71875 434.605469 377.734375 L 434.605469 458.3125 C 434.605469 474.328125 421.542969 487.382812 405.523438 487.382812 Z M 369.363281 355.242188 C 356.957031 355.242188 346.855469 365.335938 346.855469 377.734375 L 346.855469 458.3125 C 346.855469 470.710938 356.957031 480.804688 369.363281 480.804688 L 405.523438 480.804688 C 417.925781 480.804688 428.027344 470.710938 428.027344 458.3125 L 428.027344 377.734375 C 428.027344 365.335938 417.925781 355.242188 405.523438 355.242188 Z M 369.363281 355.242188 " fill-opacity="1" fill-rule="nonzero"/><path fill="#ffffff" d="M 1435.160156 408.191406 C 1434.402344 410.691406 1433.1875 413.125 1431.574219 415.390625 C 1413.410156 440.945312 1374.09375 462.257812 1327.636719 482.15625 C 1308.71875 490.3125 1288.777344 495.902344 1268.347656 498.796875 C 1152.597656 515.042969 1037.109375 532.605469 921.164062 547.503906 C 781.460938 565.359375 640.015625 568.847656 499.160156 574.46875 C 455.828125 576.179688 412.367188 578.089844 368.902344 579.140625 C 335.109375 579.929688 301.355469 580.257812 267.660156 579.566406 C 254.796875 579.304688 241.964844 578.878906 229.101562 578.316406 C 195.34375 575.359375 163.363281 570.589844 133.949219 563.222656 C 119.339844 559.605469 105.386719 555.328125 92.160156 550.296875 C 85.878906 547.960938 79.757812 545.429688 73.800781 542.734375 C 50.804688 530.171875 28.792969 511.425781 7.4375 488.632812 C 2.601562 483.402344 0.890625 476.332031 2.4375 469.789062 C 39.980469 486.496094 108.316406 514.484375 159.777344 522.210938 C 230.648438 532.898438 1256.535156 449.136719 1360.769531 440.585938 C 1366.691406 440.089844 1372.515625 438.777344 1378.042969 436.605469 C 1391.171875 431.507812 1416.375 420.882812 1435.160156 408.191406 Z M 1435.160156 408.191406 " fill-opacity="1" fill-rule="nonzero"/><path fill="#040134" d="M 824.761719 580.257812 C 748.820312 604.925781 674.660156 606.273438 602.605469 580.257812 L 602.605469 474.953125 L 824.761719 474.953125 Z M 824.761719 580.257812 " fill-opacity="1" fill-rule="nonzero"/><path fill="#008afa" d="M 647.054688 474.953125 L 853.351562 472.914062 L 962.191406 575.820312 C 975.351562 588.25 967.027344 607.6875 947.253906 610.679688 L 897.867188 618.113281 C 883.917969 620.21875 869.472656 617.617188 857.894531 610.910156 Z M 647.054688 474.953125 " fill-opacity="1" fill-rule="nonzero"/><path fill="#008afa" d="M 1114.859375 382.734375 L 1278.117188 380.367188 L 1364.257812 461.796875 C 1374.652344 471.628906 1368.074219 487.023438 1352.445312 489.355469 L 1313.355469 495.242188 C 1302.300781 496.921875 1290.917969 494.847656 1281.738281 489.554688 Z M 1114.859375 382.734375 " fill-opacity="1" fill-rule="nonzero"/><path fill="#ffffff" d="M 623.039062 474.953125 L 629.617188 474.953125 L 629.617188 569.539062 L 623.039062 569.539062 Z M 623.039062 474.953125 " fill-opacity="1" fill-rule="nonzero"/></svg>