<svg xmlns="http://www.w3.org/2000/svg" xmlns:xlink="http://www.w3.org/1999/xlink" width="1920" zoomAndPan="magnify" viewBox="0 0 1440 809.999993" height="1080" preserveAspectRatio="xMidYMid meet" version="1.0"><defs><clipPath id="e62fee8b3b"><path d="M 924 5.25 L 1397 5.25 L 1397 362 L 924 362 Z M 924 5.25 " clip-rule="nonzero"/></clipPath></defs><g clip-path="url(#e62fee8b3b)"><path fill="#1a655c" d="M 1396.53125 5.25 L 1292.363281 5.25 C 1272.855469 5.25 1253.574219 15.941406 1242.1875 33.117188 L 1160.394531 189.632812 C 1144.238281 220.5625 1119.035156 246.71875 1088.40625 263.894531 C 1012.761719 306.238281 924.453125 329.46875 924.453125 329.46875 L 1081.296875 341.015625 L 1070.570312 361.546875 L 1206.425781 361.546875 L 1210.832031 353.253906 L 1264.003906 353.253906 Z M 1396.53125 5.25 " fill-opacity="1" fill-rule="nonzero"/></g><path fill="#111931" d="M 787.417969 361.546875 L 651.5625 361.546875 L 690.289062 304.660156 C 701.96875 287.484375 721.414062 276.792969 740.925781 276.792969 L 845.09375 276.792969 Z M 787.417969 361.546875 " fill-opacity="1" fill-rule="nonzero"/><path fill="#36ca18" d="M 1435.160156 408.367188 C 1434.402344 410.867188 1433.1875 413.300781 1431.574219 415.570312 C 1413.410156 441.136719 1374.09375 462.457031 1327.636719 482.363281 C 1308.71875 490.523438 1288.777344 496.117188 1268.347656 499.011719 C 1152.597656 515.265625 1037.109375 532.835938 921.164062 547.738281 C 781.460938 565.605469 640.015625 569.09375 499.160156 574.71875 C 455.828125 576.429688 412.367188 578.339844 368.902344 579.390625 C 335.109375 580.179688 301.355469 580.511719 267.660156 579.820312 C 254.796875 579.554688 241.964844 579.128906 229.101562 578.570312 C 195.34375 575.609375 163.363281 570.835938 133.949219 563.46875 C 119.339844 559.847656 105.386719 555.570312 92.160156 550.535156 C 85.878906 548.199219 79.757812 545.667969 73.800781 542.96875 C 50.804688 530.402344 28.792969 511.644531 7.4375 488.84375 C 2.601562 483.613281 0.890625 476.539062 2.4375 469.992188 C 3.097656 467 4.445312 464.101562 6.519531 461.601562 C 23.625 440.511719 47.019531 423.402344 72.847656 407.808594 C 73.175781 407.609375 73.507812 407.414062 73.835938 407.214844 C 102.820312 380.960938 132.664062 358.488281 163.429688 340.195312 C 178.792969 331.078125 194.421875 322.953125 210.246094 315.945312 C 236.867188 304.164062 265.917969 299.066406 294.96875 300.085938 L 464.941406 306.171875 L 488.46875 306.996094 L 523.148438 308.246094 L 581.910156 310.351562 L 1268.214844 334.894531 C 1284.4375 335.488281 1300.558594 337.757812 1316.316406 341.707031 C 1357.9375 352.234375 1395.21875 363.621094 1422.03125 377.140625 C 1433.777344 383.097656 1438.945312 396.554688 1435.160156 408.367188 Z M 1435.160156 408.367188 " fill-opacity="1" fill-rule="nonzero"/><path fill="#1a655c" d="M 296.320312 351.019531 C 293.195312 368.753906 282.46875 402.574219 246.011719 407.808594 L 72.847656 407.808594 C 73.175781 407.609375 73.507812 407.414062 73.835938 407.214844 C 102.820312 380.960938 132.664062 358.488281 163.429688 340.195312 L 287.238281 340.195312 C 292.964844 340.195312 297.339844 345.359375 296.320312 351.019531 Z M 296.320312 351.019531 " fill-opacity="1" fill-rule="nonzero"/><path fill="#1a655c" d="M 507.914062 435.082031 L 489.71875 435.082031 C 483.464844 435.082031 478.433594 430.015625 478.433594 423.796875 L 478.433594 391.816406 C 478.433594 385.566406 483.5 380.53125 489.71875 380.53125 L 507.914062 380.53125 C 514.164062 380.53125 519.199219 385.597656 519.199219 391.816406 L 519.199219 423.796875 C 519.199219 430.015625 514.132812 435.082031 507.914062 435.082031 Z M 507.914062 435.082031 " fill-opacity="1" fill-rule="nonzero"/><path fill="#1a655c" d="M 565.625 435.082031 L 547.429688 435.082031 C 541.175781 435.082031 536.144531 430.015625 536.144531 423.796875 L 536.144531 391.816406 C 536.144531 385.566406 541.210938 380.53125 547.429688 380.53125 L 565.625 380.53125 C 571.875 380.53125 576.910156 385.597656 576.910156 391.816406 L 576.910156 423.796875 C 576.941406 430.015625 571.875 435.082031 565.625 435.082031 Z M 565.625 435.082031 " fill-opacity="1" fill-rule="nonzero"/><path fill="#1a655c" d="M 623.367188 435.082031 L 605.171875 435.082031 C 598.921875 435.082031 593.886719 430.015625 593.886719 423.796875 L 593.886719 391.816406 C 593.886719 385.566406 598.953125 380.53125 605.171875 380.53125 L 623.367188 380.53125 C 629.617188 380.53125 634.652344 385.597656 634.652344 391.816406 L 634.652344 423.796875 C 634.652344 430.015625 629.585938 435.082031 623.367188 435.082031 Z M 623.367188 435.082031 " fill-opacity="1" fill-rule="nonzero"/><path fill="#1a655c" d="M 681.078125 435.082031 L 662.882812 435.082031 C 656.628906 435.082031 651.597656 430.015625 651.597656 423.796875 L 651.597656 391.816406 C 651.597656 385.566406 656.664062 380.53125 662.882812 380.53125 L 681.078125 380.53125 C 687.328125 380.53125 692.363281 385.597656 692.363281 391.816406 L 692.363281 423.796875 C 692.363281 430.015625 687.328125 435.082031 681.078125 435.082031 Z M 681.078125 435.082031 " fill-opacity="1" fill-rule="nonzero"/><path fill="#1a655c" d="M 738.785156 435.082031 L 720.59375 435.082031 C 714.339844 435.082031 709.308594 430.015625 709.308594 423.796875 L 709.308594 391.816406 C 709.308594 385.566406 714.375 380.53125 720.59375 380.53125 L 738.785156 380.53125 C 745.039062 380.53125 750.074219 385.597656 750.074219 391.816406 L 750.074219 423.796875 C 750.105469 430.015625 745.039062 435.082031 738.785156 435.082031 Z M 738.785156 435.082031 " fill-opacity="1" fill-rule="nonzero"/><path fill="#1a655c" d="M 796.53125 435.082031 L 778.335938 435.082031 C 772.085938 435.082031 767.050781 430.015625 767.050781 423.796875 L 767.050781 391.816406 C 767.050781 385.566406 772.117188 380.53125 778.335938 380.53125 L 796.53125 380.53125 C 802.78125 380.53125 807.816406 385.597656 807.816406 391.816406 L 807.816406 423.796875 C 807.816406 430.015625 802.78125 435.082031 796.53125 435.082031 Z M 796.53125 435.082031 " fill-opacity="1" fill-rule="nonzero"/><path fill="#1a655c" d="M 854.242188 435.082031 L 836.046875 435.082031 C 829.792969 435.082031 824.761719 430.015625 824.761719 423.796875 L 824.761719 391.816406 C 824.761719 385.566406 829.828125 380.53125 836.046875 380.53125 L 854.242188 380.53125 C 860.492188 380.53125 865.527344 385.597656 865.527344 391.816406 L 865.527344 423.796875 C 865.558594 430.015625 860.492188 435.082031 854.242188 435.082031 Z M 854.242188 435.082031 " fill-opacity="1" fill-rule="nonzero"/><path fill="#1a655c" d="M 911.984375 435.082031 L 893.789062 435.082031 C 887.539062 435.082031 882.503906 430.015625 882.503906 423.796875 L 882.503906 391.816406 C 882.503906 385.566406 887.570312 380.53125 893.789062 380.53125 L 911.984375 380.53125 C 918.234375 380.53125 923.269531 385.597656 923.269531 391.816406 L 923.269531 423.796875 C 923.269531 430.015625 918.203125 435.082031 911.984375 435.082031 Z M 911.984375 435.082031 " fill-opacity="1" fill-rule="nonzero"/><path fill="#1a655c" d="M 969.695312 435.082031 L 951.5 435.082031 C 945.246094 435.082031 940.214844 430.015625 940.214844 423.796875 L 940.214844 391.816406 C 940.214844 385.566406 945.28125 380.53125 951.5 380.53125 L 969.695312 380.53125 C 975.945312 380.53125 980.980469 385.597656 980.980469 391.816406 L 980.980469 423.796875 C 981.011719 430.015625 975.945312 435.082031 969.695312 435.082031 Z M 969.695312 435.082031 " fill-opacity="1" fill-rule="nonzero"/><path fill="#1a655c" d="M 1027.4375 435.082031 L 1009.242188 435.082031 C 1002.992188 435.082031 997.957031 430.015625 997.957031 423.796875 L 997.957031 391.816406 C 997.957031 385.566406 1003.023438 380.53125 1009.242188 380.53125 L 1027.4375 380.53125 C 1033.6875 380.53125 1038.722656 385.597656 1038.722656 391.816406 L 1038.722656 423.796875 C 1038.722656 430.015625 1033.65625 435.082031 1027.4375 435.082031 Z M 1027.4375 435.082031 " fill-opacity="1" fill-rule="nonzero"/><path fill="#ffffff" d="M 405.523438 487.59375 L 369.363281 487.59375 C 353.339844 487.59375 340.277344 474.53125 340.277344 458.507812 L 340.277344 377.898438 C 340.277344 361.875 353.339844 348.8125 369.363281 348.8125 L 405.523438 348.8125 C 421.542969 348.8125 434.605469 361.875 434.605469 377.898438 L 434.605469 458.507812 C 434.605469 474.53125 421.542969 487.59375 405.523438 487.59375 Z M 369.363281 355.394531 C 356.957031 355.394531 346.855469 365.496094 346.855469 377.898438 L 346.855469 458.507812 C 346.855469 470.914062 356.957031 481.015625 369.363281 481.015625 L 405.523438 481.015625 C 417.925781 481.015625 428.027344 470.914062 428.027344 458.507812 L 428.027344 377.898438 C 428.027344 365.496094 417.925781 355.394531 405.523438 355.394531 Z M 369.363281 355.394531 " fill-opacity="1" fill-rule="nonzero"/><path fill="#ffffff" d="M 1435.160156 408.367188 C 1434.402344 410.867188 1433.1875 413.300781 1431.574219 415.570312 C 1413.410156 441.136719 1374.09375 462.457031 1327.636719 482.363281 C 1308.71875 490.523438 1288.777344 496.117188 1268.347656 499.011719 C 1152.597656 515.265625 1037.109375 532.835938 921.164062 547.738281 C 781.460938 565.605469 640.015625 569.09375 499.160156 574.71875 C 455.828125 576.429688 412.367188 578.339844 368.902344 579.390625 C 335.109375 580.179688 301.355469 580.511719 267.660156 579.820312 C 254.796875 579.554688 241.964844 579.128906 229.101562 578.570312 C 195.34375 575.609375 163.363281 570.835938 133.949219 563.46875 C 119.339844 559.847656 105.386719 555.570312 92.160156 550.535156 C 85.878906 548.199219 79.757812 545.667969 73.800781 542.96875 C 50.804688 530.402344 28.792969 511.644531 7.4375 488.84375 C 2.601562 483.613281 0.890625 476.539062 2.4375 469.992188 C 39.980469 486.707031 108.316406 514.707031 159.777344 522.4375 C 230.648438 533.132812 1256.535156 449.328125 1360.769531 440.773438 C 1366.691406 440.28125 1372.515625 438.964844 1378.042969 436.792969 C 1391.171875 431.695312 1416.375 421.066406 1435.160156 408.367188 Z M 1435.160156 408.367188 " fill-opacity="1" fill-rule="nonzero"/><path fill="#1a655c" d="M 824.761719 580.511719 C 748.820312 605.1875 674.660156 606.535156 602.605469 580.511719 L 602.605469 475.15625 L 824.761719 475.15625 Z M 824.761719 580.511719 " fill-opacity="1" fill-rule="nonzero"/><path fill="#111931" d="M 647.054688 475.15625 L 853.351562 473.117188 L 962.191406 576.070312 C 975.351562 588.503906 967.027344 607.949219 947.253906 610.945312 L 897.867188 618.382812 C 883.917969 620.488281 869.472656 617.886719 857.894531 611.175781 Z M 647.054688 475.15625 " fill-opacity="1" fill-rule="nonzero"/><path fill="#111931" d="M 1114.859375 382.902344 L 1278.117188 380.53125 L 1364.257812 461.996094 C 1374.652344 471.835938 1368.074219 487.234375 1352.445312 489.570312 L 1313.355469 495.457031 C 1302.300781 497.136719 1290.917969 495.0625 1281.738281 489.765625 Z M 1114.859375 382.902344 " fill-opacity="1" fill-rule="nonzero"/><path fill="#ffffff" d="M 623.039062 475.15625 L 629.617188 475.15625 L 629.617188 569.785156 L 623.039062 569.785156 Z M 623.039062 475.15625 " fill-opacity="1" fill-rule="nonzero"/></svg>